<mxfile host="app.diagrams.net" modified="2023-04-06T08:15:24.072Z" agent="Mozilla/5.0 (Macintosh; Intel Mac OS X 10_15_7) AppleWebKit/537.36 (KHTML, like Gecko) Chrome/112.0.0.0 Safari/537.36" etag="8zXitTxWfyFEytPzxoZ2" version="21.1.4" type="device">
  <diagram name="Page-1" id="acX5bbX6ohHZKl1gG4sX">
    <mxGraphModel dx="2044" dy="1809" grid="1" gridSize="10" guides="1" tooltips="1" connect="1" arrows="1" fold="1" page="1" pageScale="1" pageWidth="850" pageHeight="1100" math="0" shadow="0">
      <root>
        <mxCell id="0" />
        <mxCell id="1" parent="0" />
        <mxCell id="2c_V3igSBwsv665nDBpx-11" value="Submodule" style="swimlane;whiteSpace=wrap;html=1;" parent="1" vertex="1">
          <mxGeometry x="200" y="560" width="440" height="280" as="geometry" />
        </mxCell>
        <mxCell id="2c_V3igSBwsv665nDBpx-12" value="Data" style="rounded=0;whiteSpace=wrap;html=1;fillColor=#dae8fc;strokeColor=#6c8ebf;" parent="2c_V3igSBwsv665nDBpx-11" vertex="1">
          <mxGeometry x="320" y="210" width="120" height="60" as="geometry" />
        </mxCell>
        <mxCell id="2c_V3igSBwsv665nDBpx-17" style="edgeStyle=orthogonalEdgeStyle;rounded=0;orthogonalLoop=1;jettySize=auto;html=1;entryX=0;entryY=0.5;entryDx=0;entryDy=0;fillColor=#d5e8d4;strokeColor=#82b366;" parent="2c_V3igSBwsv665nDBpx-11" source="2c_V3igSBwsv665nDBpx-13" target="2c_V3igSBwsv665nDBpx-12" edge="1">
          <mxGeometry relative="1" as="geometry" />
        </mxCell>
        <mxCell id="2c_V3igSBwsv665nDBpx-13" value="Service" style="rounded=0;whiteSpace=wrap;html=1;fillColor=#d5e8d4;strokeColor=#82b366;" parent="2c_V3igSBwsv665nDBpx-11" vertex="1">
          <mxGeometry x="160" y="130" width="120" height="60" as="geometry" />
        </mxCell>
        <mxCell id="2c_V3igSBwsv665nDBpx-15" style="edgeStyle=orthogonalEdgeStyle;rounded=0;orthogonalLoop=1;jettySize=auto;html=1;entryX=0;entryY=0.5;entryDx=0;entryDy=0;fillColor=#f8cecc;strokeColor=#b85450;" parent="2c_V3igSBwsv665nDBpx-11" source="2c_V3igSBwsv665nDBpx-14" target="2c_V3igSBwsv665nDBpx-12" edge="1">
          <mxGeometry relative="1" as="geometry">
            <Array as="points">
              <mxPoint x="140" y="80" />
              <mxPoint x="140" y="240" />
            </Array>
          </mxGeometry>
        </mxCell>
        <mxCell id="2c_V3igSBwsv665nDBpx-16" style="edgeStyle=orthogonalEdgeStyle;rounded=0;orthogonalLoop=1;jettySize=auto;html=1;entryX=0;entryY=0.5;entryDx=0;entryDy=0;fillColor=#f8cecc;strokeColor=#b85450;" parent="2c_V3igSBwsv665nDBpx-11" source="2c_V3igSBwsv665nDBpx-14" target="2c_V3igSBwsv665nDBpx-13" edge="1">
          <mxGeometry relative="1" as="geometry" />
        </mxCell>
        <mxCell id="2c_V3igSBwsv665nDBpx-14" value="Module" style="rounded=0;whiteSpace=wrap;html=1;fillColor=#f8cecc;strokeColor=#b85450;" parent="2c_V3igSBwsv665nDBpx-11" vertex="1">
          <mxGeometry y="50" width="120" height="60" as="geometry" />
        </mxCell>
        <mxCell id="2c_V3igSBwsv665nDBpx-18" value="Submodule" style="swimlane;whiteSpace=wrap;html=1;" parent="1" vertex="1">
          <mxGeometry x="200" y="860" width="440" height="280" as="geometry" />
        </mxCell>
        <mxCell id="2c_V3igSBwsv665nDBpx-19" value="Data" style="rounded=0;whiteSpace=wrap;html=1;fillColor=#dae8fc;strokeColor=#6c8ebf;" parent="2c_V3igSBwsv665nDBpx-18" vertex="1">
          <mxGeometry x="320" y="210" width="120" height="60" as="geometry" />
        </mxCell>
        <mxCell id="2c_V3igSBwsv665nDBpx-20" style="edgeStyle=orthogonalEdgeStyle;rounded=0;orthogonalLoop=1;jettySize=auto;html=1;entryX=0;entryY=0.5;entryDx=0;entryDy=0;fillColor=#d5e8d4;strokeColor=#82b366;" parent="2c_V3igSBwsv665nDBpx-18" source="2c_V3igSBwsv665nDBpx-21" target="2c_V3igSBwsv665nDBpx-19" edge="1">
          <mxGeometry relative="1" as="geometry" />
        </mxCell>
        <mxCell id="2c_V3igSBwsv665nDBpx-21" value="Service" style="rounded=0;whiteSpace=wrap;html=1;fillColor=#d5e8d4;strokeColor=#82b366;" parent="2c_V3igSBwsv665nDBpx-18" vertex="1">
          <mxGeometry x="160" y="130" width="120" height="60" as="geometry" />
        </mxCell>
        <mxCell id="2c_V3igSBwsv665nDBpx-22" style="edgeStyle=orthogonalEdgeStyle;rounded=0;orthogonalLoop=1;jettySize=auto;html=1;entryX=0;entryY=0.5;entryDx=0;entryDy=0;fillColor=#f8cecc;strokeColor=#b85450;" parent="2c_V3igSBwsv665nDBpx-18" source="2c_V3igSBwsv665nDBpx-24" target="2c_V3igSBwsv665nDBpx-19" edge="1">
          <mxGeometry relative="1" as="geometry">
            <Array as="points">
              <mxPoint x="140" y="80" />
              <mxPoint x="140" y="240" />
            </Array>
          </mxGeometry>
        </mxCell>
        <mxCell id="2c_V3igSBwsv665nDBpx-23" style="edgeStyle=orthogonalEdgeStyle;rounded=0;orthogonalLoop=1;jettySize=auto;html=1;entryX=0;entryY=0.5;entryDx=0;entryDy=0;fillColor=#f8cecc;strokeColor=#b85450;" parent="2c_V3igSBwsv665nDBpx-18" source="2c_V3igSBwsv665nDBpx-24" target="2c_V3igSBwsv665nDBpx-21" edge="1">
          <mxGeometry relative="1" as="geometry" />
        </mxCell>
        <mxCell id="2c_V3igSBwsv665nDBpx-24" value="Module" style="rounded=0;whiteSpace=wrap;html=1;fillColor=#f8cecc;strokeColor=#b85450;" parent="2c_V3igSBwsv665nDBpx-18" vertex="1">
          <mxGeometry y="50" width="120" height="60" as="geometry" />
        </mxCell>
        <mxCell id="2c_V3igSBwsv665nDBpx-25" value="Kingdox.UniFlux" style="swimlane;whiteSpace=wrap;html=1;" parent="1" vertex="1">
          <mxGeometry x="-525" y="-200" width="200" height="140" as="geometry" />
        </mxCell>
        <mxCell id="2c_V3igSBwsv665nDBpx-5" value="Flux" style="rounded=0;whiteSpace=wrap;html=1;fillColor=#e1d5e7;strokeColor=#9673a6;" parent="2c_V3igSBwsv665nDBpx-25" vertex="1">
          <mxGeometry x="40" y="50" width="120" height="60" as="geometry" />
        </mxCell>
        <mxCell id="2c_V3igSBwsv665nDBpx-50" value="Core" style="swimlane;whiteSpace=wrap;html=1;" parent="1" vertex="1">
          <mxGeometry x="-280" y="-40" width="440" height="580" as="geometry" />
        </mxCell>
        <mxCell id="2c_V3igSBwsv665nDBpx-28" value="Module" style="swimlane;whiteSpace=wrap;html=1;" parent="2c_V3igSBwsv665nDBpx-50" vertex="1">
          <mxGeometry y="40" width="120" height="120" as="geometry" />
        </mxCell>
        <mxCell id="2c_V3igSBwsv665nDBpx-30" value="Module" style="rounded=0;whiteSpace=wrap;html=1;fillColor=#f8cecc;strokeColor=#b85450;" parent="2c_V3igSBwsv665nDBpx-28" vertex="1">
          <mxGeometry y="40" width="120" height="60" as="geometry" />
        </mxCell>
        <mxCell id="2c_V3igSBwsv665nDBpx-31" value="Module" style="swimlane;whiteSpace=wrap;html=1;" parent="2c_V3igSBwsv665nDBpx-50" vertex="1">
          <mxGeometry y="180" width="120" height="120" as="geometry" />
        </mxCell>
        <mxCell id="2c_V3igSBwsv665nDBpx-32" value="Module" style="rounded=0;whiteSpace=wrap;html=1;fillColor=#f8cecc;strokeColor=#b85450;" parent="2c_V3igSBwsv665nDBpx-31" vertex="1">
          <mxGeometry y="40" width="120" height="60" as="geometry" />
        </mxCell>
        <mxCell id="2c_V3igSBwsv665nDBpx-33" value="Module" style="swimlane;whiteSpace=wrap;html=1;" parent="2c_V3igSBwsv665nDBpx-50" vertex="1">
          <mxGeometry y="320" width="120" height="120" as="geometry" />
        </mxCell>
        <mxCell id="2c_V3igSBwsv665nDBpx-34" value="Module" style="rounded=0;whiteSpace=wrap;html=1;fillColor=#f8cecc;strokeColor=#b85450;" parent="2c_V3igSBwsv665nDBpx-33" vertex="1">
          <mxGeometry y="40" width="120" height="60" as="geometry" />
        </mxCell>
        <mxCell id="2c_V3igSBwsv665nDBpx-35" value="Service" style="swimlane;whiteSpace=wrap;html=1;" parent="2c_V3igSBwsv665nDBpx-50" vertex="1">
          <mxGeometry x="160" y="320" width="120" height="120" as="geometry" />
        </mxCell>
        <mxCell id="2c_V3igSBwsv665nDBpx-36" value="Service" style="rounded=0;whiteSpace=wrap;html=1;fillColor=#d5e8d4;strokeColor=#82b366;" parent="2c_V3igSBwsv665nDBpx-35" vertex="1">
          <mxGeometry y="40" width="120" height="60" as="geometry" />
        </mxCell>
        <mxCell id="2c_V3igSBwsv665nDBpx-37" value="Data" style="swimlane;whiteSpace=wrap;html=1;" parent="2c_V3igSBwsv665nDBpx-50" vertex="1">
          <mxGeometry x="320" y="460" width="120" height="120" as="geometry" />
        </mxCell>
        <mxCell id="2c_V3igSBwsv665nDBpx-38" value="Data" style="rounded=0;whiteSpace=wrap;html=1;fillColor=#dae8fc;strokeColor=#6c8ebf;" parent="2c_V3igSBwsv665nDBpx-37" vertex="1">
          <mxGeometry y="40" width="120" height="60" as="geometry" />
        </mxCell>
        <mxCell id="2c_V3igSBwsv665nDBpx-41" style="edgeStyle=orthogonalEdgeStyle;rounded=0;orthogonalLoop=1;jettySize=auto;html=1;entryX=0;entryY=0.5;entryDx=0;entryDy=0;" parent="2c_V3igSBwsv665nDBpx-50" source="2c_V3igSBwsv665nDBpx-30" target="2c_V3igSBwsv665nDBpx-36" edge="1">
          <mxGeometry relative="1" as="geometry">
            <Array as="points">
              <mxPoint x="140" y="110" />
              <mxPoint x="140" y="390" />
            </Array>
          </mxGeometry>
        </mxCell>
        <mxCell id="2c_V3igSBwsv665nDBpx-42" style="edgeStyle=orthogonalEdgeStyle;rounded=0;orthogonalLoop=1;jettySize=auto;html=1;entryX=0;entryY=0.5;entryDx=0;entryDy=0;" parent="2c_V3igSBwsv665nDBpx-50" source="2c_V3igSBwsv665nDBpx-32" target="2c_V3igSBwsv665nDBpx-36" edge="1">
          <mxGeometry relative="1" as="geometry" />
        </mxCell>
        <mxCell id="2c_V3igSBwsv665nDBpx-43" style="edgeStyle=orthogonalEdgeStyle;rounded=0;orthogonalLoop=1;jettySize=auto;html=1;entryX=0;entryY=0.5;entryDx=0;entryDy=0;fillColor=#f8cecc;strokeColor=#b85450;" parent="2c_V3igSBwsv665nDBpx-50" source="2c_V3igSBwsv665nDBpx-34" target="2c_V3igSBwsv665nDBpx-36" edge="1">
          <mxGeometry relative="1" as="geometry">
            <mxPoint x="400" y="450" as="targetPoint" />
            <Array as="points">
              <mxPoint x="100" y="390" />
              <mxPoint x="100" y="390" />
            </Array>
          </mxGeometry>
        </mxCell>
        <mxCell id="2c_V3igSBwsv665nDBpx-44" style="edgeStyle=orthogonalEdgeStyle;rounded=0;orthogonalLoop=1;jettySize=auto;html=1;entryX=0;entryY=0.5;entryDx=0;entryDy=0;fillColor=#d5e8d4;strokeColor=#82b366;" parent="2c_V3igSBwsv665nDBpx-50" source="2c_V3igSBwsv665nDBpx-36" target="2c_V3igSBwsv665nDBpx-38" edge="1">
          <mxGeometry relative="1" as="geometry" />
        </mxCell>
        <mxCell id="2c_V3igSBwsv665nDBpx-47" style="edgeStyle=orthogonalEdgeStyle;rounded=0;orthogonalLoop=1;jettySize=auto;html=1;entryX=0;entryY=0.5;entryDx=0;entryDy=0;fillColor=#f8cecc;strokeColor=#b85450;" parent="2c_V3igSBwsv665nDBpx-50" source="2c_V3igSBwsv665nDBpx-30" target="2c_V3igSBwsv665nDBpx-38" edge="1">
          <mxGeometry relative="1" as="geometry">
            <Array as="points">
              <mxPoint x="140" y="110" />
              <mxPoint x="140" y="530" />
            </Array>
          </mxGeometry>
        </mxCell>
        <mxCell id="2c_V3igSBwsv665nDBpx-48" style="edgeStyle=orthogonalEdgeStyle;rounded=0;orthogonalLoop=1;jettySize=auto;html=1;entryX=0;entryY=0.5;entryDx=0;entryDy=0;fillColor=#f8cecc;strokeColor=#b85450;" parent="2c_V3igSBwsv665nDBpx-50" source="2c_V3igSBwsv665nDBpx-32" target="2c_V3igSBwsv665nDBpx-38" edge="1">
          <mxGeometry relative="1" as="geometry">
            <Array as="points">
              <mxPoint x="140" y="250" />
              <mxPoint x="140" y="530" />
            </Array>
          </mxGeometry>
        </mxCell>
        <mxCell id="2c_V3igSBwsv665nDBpx-49" style="edgeStyle=orthogonalEdgeStyle;rounded=0;orthogonalLoop=1;jettySize=auto;html=1;entryX=0;entryY=0.5;entryDx=0;entryDy=0;fillColor=#f8cecc;strokeColor=#b85450;" parent="2c_V3igSBwsv665nDBpx-50" source="2c_V3igSBwsv665nDBpx-34" target="2c_V3igSBwsv665nDBpx-38" edge="1">
          <mxGeometry relative="1" as="geometry">
            <Array as="points">
              <mxPoint x="140" y="390" />
              <mxPoint x="140" y="530" />
            </Array>
          </mxGeometry>
        </mxCell>
        <mxCell id="2c_V3igSBwsv665nDBpx-51" style="edgeStyle=orthogonalEdgeStyle;rounded=0;orthogonalLoop=1;jettySize=auto;html=1;entryX=0;entryY=0.5;entryDx=0;entryDy=0;fillColor=#d5e8d4;strokeColor=#82b366;" parent="1" source="2c_V3igSBwsv665nDBpx-36" target="2c_V3igSBwsv665nDBpx-13" edge="1">
          <mxGeometry relative="1" as="geometry" />
        </mxCell>
        <mxCell id="2c_V3igSBwsv665nDBpx-52" style="edgeStyle=orthogonalEdgeStyle;rounded=0;orthogonalLoop=1;jettySize=auto;html=1;entryX=0;entryY=0.5;entryDx=0;entryDy=0;fillColor=#d5e8d4;strokeColor=#82b366;" parent="1" source="2c_V3igSBwsv665nDBpx-36" target="2c_V3igSBwsv665nDBpx-21" edge="1">
          <mxGeometry relative="1" as="geometry" />
        </mxCell>
        <mxCell id="2c_V3igSBwsv665nDBpx-53" style="edgeStyle=orthogonalEdgeStyle;rounded=0;orthogonalLoop=1;jettySize=auto;html=1;entryX=1;entryY=0.5;entryDx=0;entryDy=0;fillColor=#d5e8d4;strokeColor=#82b366;" parent="1" source="2c_V3igSBwsv665nDBpx-36" target="2c_V3igSBwsv665nDBpx-5" edge="1">
          <mxGeometry relative="1" as="geometry">
            <Array as="points">
              <mxPoint x="720" y="350" />
              <mxPoint x="720" y="-120" />
            </Array>
          </mxGeometry>
        </mxCell>
        <mxCell id="2c_V3igSBwsv665nDBpx-54" style="edgeStyle=orthogonalEdgeStyle;rounded=0;orthogonalLoop=1;jettySize=auto;html=1;entryX=1;entryY=0.5;entryDx=0;entryDy=0;fillColor=#d5e8d4;strokeColor=#82b366;" parent="1" source="2c_V3igSBwsv665nDBpx-13" target="2c_V3igSBwsv665nDBpx-5" edge="1">
          <mxGeometry relative="1" as="geometry">
            <Array as="points">
              <mxPoint x="720" y="720" />
              <mxPoint x="720" y="-120" />
            </Array>
          </mxGeometry>
        </mxCell>
        <mxCell id="2c_V3igSBwsv665nDBpx-55" style="edgeStyle=orthogonalEdgeStyle;rounded=0;orthogonalLoop=1;jettySize=auto;html=1;entryX=1;entryY=0.5;entryDx=0;entryDy=0;fillColor=#d5e8d4;strokeColor=#82b366;" parent="1" source="2c_V3igSBwsv665nDBpx-21" target="2c_V3igSBwsv665nDBpx-5" edge="1">
          <mxGeometry relative="1" as="geometry">
            <Array as="points">
              <mxPoint x="720" y="1020" />
              <mxPoint x="720" y="-120" />
            </Array>
          </mxGeometry>
        </mxCell>
        <mxCell id="2c_V3igSBwsv665nDBpx-56" style="edgeStyle=orthogonalEdgeStyle;rounded=0;orthogonalLoop=1;jettySize=auto;html=1;exitX=0.5;exitY=1;exitDx=0;exitDy=0;entryX=0;entryY=0.5;entryDx=0;entryDy=0;dashed=1;fillColor=#e1d5e7;strokeColor=#9673a6;" parent="1" source="2c_V3igSBwsv665nDBpx-5" target="2c_V3igSBwsv665nDBpx-30" edge="1">
          <mxGeometry relative="1" as="geometry" />
        </mxCell>
        <mxCell id="2c_V3igSBwsv665nDBpx-57" style="edgeStyle=orthogonalEdgeStyle;rounded=0;orthogonalLoop=1;jettySize=auto;html=1;exitX=0.5;exitY=1;exitDx=0;exitDy=0;entryX=0;entryY=0.5;entryDx=0;entryDy=0;dashed=1;fillColor=#e1d5e7;strokeColor=#9673a6;" parent="1" source="2c_V3igSBwsv665nDBpx-5" target="2c_V3igSBwsv665nDBpx-32" edge="1">
          <mxGeometry relative="1" as="geometry">
            <mxPoint x="-415" y="-80" as="sourcePoint" />
            <mxPoint x="-270" y="80" as="targetPoint" />
          </mxGeometry>
        </mxCell>
        <mxCell id="2c_V3igSBwsv665nDBpx-58" style="edgeStyle=orthogonalEdgeStyle;rounded=0;orthogonalLoop=1;jettySize=auto;html=1;exitX=0.5;exitY=1;exitDx=0;exitDy=0;entryX=0;entryY=0.5;entryDx=0;entryDy=0;dashed=1;fillColor=#e1d5e7;strokeColor=#9673a6;" parent="1" source="2c_V3igSBwsv665nDBpx-5" target="2c_V3igSBwsv665nDBpx-34" edge="1">
          <mxGeometry relative="1" as="geometry">
            <mxPoint x="-415" y="-80" as="sourcePoint" />
            <mxPoint x="-270" y="220" as="targetPoint" />
          </mxGeometry>
        </mxCell>
        <mxCell id="2c_V3igSBwsv665nDBpx-60" style="edgeStyle=orthogonalEdgeStyle;rounded=0;orthogonalLoop=1;jettySize=auto;html=1;exitX=0.5;exitY=1;exitDx=0;exitDy=0;entryX=0;entryY=0.5;entryDx=0;entryDy=0;dashed=1;fillColor=#e1d5e7;strokeColor=#9673a6;" parent="1" source="2c_V3igSBwsv665nDBpx-5" target="2c_V3igSBwsv665nDBpx-14" edge="1">
          <mxGeometry relative="1" as="geometry" />
        </mxCell>
        <mxCell id="2c_V3igSBwsv665nDBpx-61" style="edgeStyle=orthogonalEdgeStyle;rounded=0;orthogonalLoop=1;jettySize=auto;html=1;exitX=0.5;exitY=1;exitDx=0;exitDy=0;entryX=0;entryY=0.5;entryDx=0;entryDy=0;dashed=1;fillColor=#e1d5e7;strokeColor=#9673a6;" parent="1" source="2c_V3igSBwsv665nDBpx-5" target="2c_V3igSBwsv665nDBpx-24" edge="1">
          <mxGeometry relative="1" as="geometry" />
        </mxCell>
      </root>
    </mxGraphModel>
  </diagram>
</mxfile>
